<svg width="80" height="16" viewBox="0 0 80 16" fill="none" xmlns="http://www.w3.org/2000/svg">
<path d="M7.92289 1.30571L6.30323 5.21289C6.15931 5.56008 5.83287 5.79726 5.4582 5.82685L1.24205 6.15988L4.45764 8.9071C4.74345 9.15129 4.86818 9.53513 4.78049 9.90068L3.79387 14.0135L7.40059 11.8045C7.72111 11.6082 8.12466 11.6082 8.44519 11.8045L12.0519 14.0135L11.0653 9.90069C10.9776 9.53514 11.1023 9.15129 11.3881 8.9071L14.6037 6.15988L10.3876 5.82685C10.0129 5.79726 9.68646 5.56008 9.54254 5.21289L7.92289 1.30571Z" fill="#464646" stroke="#464646"/>
<path d="M23.7686 1.30571L22.1489 5.21289C22.005 5.56008 21.6786 5.79726 21.3039 5.82685L17.0878 6.15988L20.3033 8.9071C20.5892 9.15129 20.7139 9.53513 20.6262 9.90068L19.6396 14.0135L23.2463 11.8045C23.5668 11.6082 23.9704 11.6082 24.2909 11.8045L27.8976 14.0135L26.911 9.90069C26.8233 9.53514 26.948 9.15129 27.2338 8.9071L30.4494 6.15988L26.2333 5.82685C25.8586 5.79726 25.5322 5.56008 25.3882 5.21289L23.7686 1.30571Z" fill="#464646" stroke="#464646"/>
<path d="M39.6143 1.30571L37.9946 5.21289C37.8507 5.56008 37.5243 5.79726 37.1496 5.82685L32.9335 6.15988L36.149 8.9071C36.4349 9.15129 36.5596 9.53513 36.4719 9.90068L35.4853 14.0135L39.092 11.8045C39.4125 11.6082 39.8161 11.6082 40.1366 11.8045L43.7433 14.0135L42.7567 9.90069C42.669 9.53514 42.7937 9.15129 43.0795 8.9071L46.2951 6.15988L42.079 5.82685C41.7043 5.79726 41.3779 5.56008 41.2339 5.21289L39.6143 1.30571Z" fill="#464646" stroke="#464646"/>
<path d="M55.46 1.30571L53.8403 5.21289C53.6964 5.56008 53.37 5.79726 52.9953 5.82685L48.7792 6.15988L51.9947 8.9071C52.2806 9.15129 52.4053 9.53513 52.3176 9.90068L51.331 14.0135L54.9377 11.8045C55.2582 11.6082 55.6618 11.6082 55.9823 11.8045L59.589 14.0135L58.6024 9.90069C58.5147 9.53514 58.6394 9.15129 58.9252 8.9071L62.1408 6.15988L57.9247 5.82685C57.55 5.79726 57.2236 5.56008 57.0796 5.21289L55.46 1.30571Z" stroke="#464646"/>
<path d="M71.3057 1.30571L69.686 5.21289C69.5421 5.56008 69.2157 5.79726 68.841 5.82685L64.6249 6.15988L67.8405 8.9071C68.1263 9.15129 68.251 9.53513 68.1633 9.90068L67.1767 14.0135L70.7834 11.8045C71.1039 11.6082 71.5075 11.6082 71.828 11.8045L75.4347 14.0135L74.4481 9.90069C74.3604 9.53514 74.4851 9.15129 74.7709 8.9071L77.9865 6.15988L73.7704 5.82685C73.3957 5.79726 73.0693 5.56008 72.9254 5.21289L71.3057 1.30571Z" stroke="#464646"/>
</svg>
