<svg width="54" height="53" viewBox="0 0 54 53" fill="none" xmlns="http://www.w3.org/2000/svg">
<path d="M9.49716 0H44.1279C49.3691 0 53.6184 4.2763 53.6184 9.55759V43.053C53.6184 48.3276 49.3691 52.6106 44.1212 52.6106H9.49716C4.24926 52.6106 0 48.3343 0 43.053V9.55759C0 4.2763 4.24926 0 9.49716 0Z" fill="#330000"/>
<path d="M25.9848 31.573H17.6739L15.985 36.8543C15.938 37.0567 15.7571 37.1916 15.556 37.1781H11.347C11.1057 37.1781 11.0253 37.0432 11.0923 36.7801L18.2838 15.9315C18.3576 15.7156 18.4313 15.4661 18.4983 15.1895C18.5921 14.7039 18.6391 14.2183 18.6458 13.7259C18.6257 13.6045 18.7128 13.4898 18.8334 13.4763C18.8535 13.4763 18.8736 13.4763 18.8937 13.4763H24.6108C24.7784 13.4763 24.8722 13.537 24.899 13.6584L33.0624 36.8206C33.1361 37.0634 33.0624 37.1848 32.8479 37.1848H28.1697C28.0022 37.2051 27.848 37.0971 27.8078 36.9353L25.9848 31.573ZM18.9675 27.0134H24.651C24.5103 26.5345 24.336 25.9882 24.1483 25.3812C23.954 24.7809 23.7529 24.1333 23.5384 23.4454C23.324 22.7574 23.1095 22.0694 22.8883 21.3814C22.6738 20.6934 22.4728 20.0324 22.2985 19.3916C22.1176 18.7509 21.9567 18.1708 21.8092 17.638H21.7757C21.5747 18.616 21.32 19.5805 21.0184 20.5315C20.6833 21.6175 20.3414 22.7304 19.9929 23.8635C19.6444 24.9967 19.3026 26.0489 18.9675 27.0134Z" fill="#FF9A00"/>
<path d="M37.9217 17.3145C37.1777 17.3415 36.4606 17.0515 35.9445 16.5186C35.4284 15.9588 35.1603 15.2168 35.1871 14.4547C35.1603 13.6992 35.4552 12.9708 35.9981 12.4447C36.5343 11.9253 37.2514 11.642 37.9954 11.669C38.86 11.669 39.5369 11.9253 40.0262 12.4447C40.5289 12.9843 40.7903 13.7127 40.7634 14.4547C40.7903 15.2168 40.5155 15.9655 39.9927 16.5186C39.4431 17.0582 38.6924 17.3483 37.9217 17.3145ZM35.4418 36.8209V19.5201C35.4418 19.3043 35.5357 19.1964 35.73 19.1964H40.1535C40.3479 19.1964 40.4417 19.3043 40.4417 19.5201V36.8209C40.4417 37.0637 40.3479 37.1851 40.1535 37.1851H35.7635C35.5491 37.1851 35.4418 37.0637 35.4418 36.8209Z" fill="#FF9A00"/>
</svg>
