<svg width="86" height="43" viewBox="0 0 86 43" fill="none" xmlns="http://www.w3.org/2000/svg">
<path d="M43 0C19.2527 0 0 9.62608 0 21.5C0 33.3739 19.2527 43 43 43C66.7473 43 86 33.3739 86 21.5C86 9.62608 66.7473 0 43 0ZM31.8112 25.6888C30.785 26.6359 29.6455 27.0269 28.3905 27.4297C27.1356 27.8331 25.5386 27.7498 23.5967 27.7498H19.1956L17.9759 34.694H12.8372L17.4227 11.0837H27.3045C30.2775 11.0837 32.446 11.9274 33.8093 13.4669C35.1727 15.0065 35.5823 17.1918 35.0389 19.9507C34.8144 21.0875 34.4365 22.1444 33.903 23.0861C33.3687 24.0284 32.6712 24.9082 31.8112 25.6888ZM46.8106 27.7498L48.8383 17.7362C49.0692 16.5641 48.9847 15.6932 48.5842 15.2676C48.183 14.8412 47.33 14.5558 46.0258 14.5558H41.9506L39.3246 27.7498H34.226L38.8115 4.83387H43.9101L42.691 11.0837H47.2329C50.0911 11.0837 52.0619 11.6496 53.1465 12.6329C54.2311 13.6162 54.5562 14.9634 54.1227 17.1661L51.9894 27.7498H46.8106ZM75.1462 19.9875C74.9224 21.1243 74.5437 22.1632 74.0109 23.1041C73.4774 24.0464 72.7806 24.9082 71.9198 25.6888C70.8936 26.6359 69.7534 27.0269 68.4992 27.4297C67.2449 27.8331 65.6465 27.7498 63.7047 27.7498H59.3036L58.0846 34.694H52.9459L57.5306 11.0837H67.4132C70.3862 11.0837 72.5547 11.9274 73.9173 13.4669C75.2792 15.0065 75.6895 17.2293 75.1462 19.9875ZM65.4657 14.5558H61.9458L60.0264 24.2777H63.1529C65.2235 24.2777 66.7677 24.0763 67.7813 23.3055C68.7962 22.5361 69.4796 21.3417 69.8351 19.541C70.1757 17.8112 70.0209 16.462 69.3705 15.7509C68.7195 15.0398 67.4181 14.5558 65.4657 14.5558ZM25.3577 14.5558H21.8371L19.9178 24.2777H23.0435C25.1149 24.2777 26.6584 24.0763 27.6726 23.3055C28.6868 22.5361 29.371 21.3417 29.7257 19.541C30.0664 17.8112 29.9115 16.462 29.2612 15.7509C28.6108 15.0398 27.3101 14.5558 25.3577 14.5558Z" fill="#6181B6"/>
</svg>
