<svg width="54" height="53" viewBox="0 0 54 53" fill="none" xmlns="http://www.w3.org/2000/svg">
<path d="M9.49642 0H44.1245C49.3653 0 53.6142 4.26476 53.6142 9.5318V42.9368C53.6142 48.1971 49.3653 52.4686 44.1178 52.4686H9.49642C4.24893 52.4686 0 48.2039 0 42.9368V9.5318C0 4.26476 4.24893 0 9.49642 0Z" fill="#001E36"/>
<path d="M12.0701 36.7953V13.7293C12.0701 13.5612 12.1438 13.4737 12.2845 13.4737C12.6665 13.4737 13.015 13.467 13.5445 13.4535C14.0739 13.4401 14.6436 13.4333 15.2534 13.4199C15.8633 13.4064 16.5133 13.3997 17.1969 13.3863C17.8805 13.3728 18.5574 13.3728 19.2276 13.3728C21.0504 13.3728 22.5852 13.6015 23.8317 14.0589C24.9576 14.4356 25.983 15.0679 26.8341 15.8953C27.5579 16.6151 28.1141 17.4828 28.4693 18.438C28.8044 19.3731 28.9787 20.3552 28.9719 21.344C28.9719 23.2678 28.5296 24.8554 27.645 26.1065C26.7537 27.3644 25.4937 28.3129 24.0461 28.8309C22.5382 29.3959 20.8561 29.591 19.0131 29.591C18.4837 29.591 18.1151 29.5843 17.9006 29.5708C17.6862 29.5574 17.3578 29.5574 16.9289 29.5574V36.7617C16.949 36.9164 16.8417 37.0644 16.6876 37.0846C16.6608 37.0913 16.634 37.0913 16.6072 37.0846H12.3247C12.1572 37.0846 12.0701 36.9837 12.0701 36.7953ZM16.9289 17.8057V25.333C17.2371 25.3599 17.5253 25.3666 17.7934 25.3666H18.9796C19.8508 25.3666 20.7221 25.2253 21.5531 24.9563C22.2635 24.7477 22.9001 24.3307 23.3894 23.7656C23.8585 23.214 24.0931 22.4405 24.0931 21.4584C24.1132 20.7588 23.9322 20.0726 23.5703 19.474C23.195 18.8955 22.6455 18.4448 22.0088 18.1959C21.1711 17.8663 20.2797 17.7183 19.3817 17.7452C18.8054 17.7452 18.296 17.7519 17.8537 17.7586C17.4047 17.7654 17.0964 17.7788 16.9289 17.8057Z" fill="#31A8FF"/>
<path d="M42.8847 23.9607C42.2078 23.6109 41.4907 23.3553 40.7468 23.2006C39.9292 23.0122 39.0847 22.9181 38.247 22.9113C37.7913 22.8979 37.3356 22.9517 36.9 23.0728C36.6185 23.1333 36.3705 23.2948 36.1963 23.5235C36.0823 23.7051 36.0153 23.9204 36.0153 24.1356C36.022 24.3441 36.0958 24.5459 36.2298 24.7141C36.4375 24.963 36.6989 25.1648 36.9871 25.3128C37.5031 25.5886 38.0259 25.8375 38.5687 26.0527C39.775 26.4563 40.9277 27.0147 42 27.6941C42.7305 28.1582 43.3404 28.7972 43.7626 29.5506C44.1178 30.2637 44.2987 31.0574 44.2853 31.8646C44.3054 32.9207 44.0039 33.9634 43.4208 34.8446C42.7975 35.7393 41.9263 36.4321 40.921 36.8492C39.8286 37.3268 38.4816 37.5689 36.8732 37.5689C35.8545 37.5824 34.8358 37.4815 33.8306 37.2797C33.0397 37.1317 32.2757 36.8895 31.5452 36.5599C31.3844 36.4792 31.2839 36.3043 31.2906 36.1294V32.2279C31.2839 32.1472 31.3174 32.0732 31.3777 32.0328C31.438 31.9992 31.5184 32.0059 31.5721 32.0463C32.4299 32.5575 33.3681 32.9275 34.3399 33.1495C35.1977 33.3647 36.0823 33.4791 36.967 33.4925C37.8047 33.4925 38.4213 33.3849 38.8167 33.1696C39.1786 33.0015 39.4131 32.6315 39.4131 32.2279C39.4131 31.9185 39.2322 31.6158 38.8703 31.3265C38.5084 31.0373 37.7779 30.6875 36.6788 30.2771C35.5529 29.8803 34.4806 29.3354 33.4955 28.6493C32.7918 28.1582 32.2154 27.5057 31.8066 26.7523C31.4514 26.0393 31.2772 25.2523 31.2839 24.4585C31.2839 23.5033 31.5452 22.5616 32.0412 21.7476C32.6041 20.853 33.415 20.1332 34.3801 19.6892C35.4323 19.1578 36.7525 18.8955 38.3341 18.8955C39.259 18.8888 40.1838 18.956 41.102 19.0973C41.7655 19.1847 42.4155 19.3596 43.0321 19.622C43.1326 19.6489 43.213 19.7229 43.2465 19.8238C43.2734 19.9112 43.2801 20.0054 43.2801 20.0928V23.7455C43.2868 23.8329 43.2466 23.9136 43.1728 23.9607C43.0991 24.0078 42.9852 24.0078 42.8847 23.9607Z" fill="#31A8FF"/>
</svg>
